<?xml version="1.0" encoding="utf-8"?>
<svg width="640px" height="640px" viewBox="0 0 640 640" version="1.1" xmlns:xlink="http://www.w3.org/1999/xlink" xmlns="http://www.w3.org/2000/svg">
  <defs>
    <rect width="640" height="640" id="artboard_1" />
    <clipPath id="clip_1">
      <use xlink:href="#artboard_1" clip-rule="evenodd" />
    </clipPath>
  </defs>
  <g id="Artboard" clip-path="url(#clip_1)">
    <use xlink:href="#artboard_1" stroke="none" fill="#000000" fill-opacity="0" />
    <path d="M406.992 182.688L419.693 216.016Q420.87 219.103 422.247 222.106Q423.625 225.109 425.198 228.014Q426.771 230.919 428.532 233.714Q430.294 236.51 432.236 239.182Q434.177 241.855 436.292 244.394Q438.406 246.933 440.683 249.327Q442.96 251.72 445.39 253.959Q447.82 256.197 450.393 258.27L478.165 280.648Q479.262 281.533 480.309 282.478Q481.356 283.422 482.349 284.423Q483.341 285.425 484.276 286.48Q485.211 287.535 486.086 288.641Q486.961 289.746 487.773 290.899Q488.585 292.052 489.331 293.248Q490.078 294.444 490.756 295.68Q491.435 296.916 492.043 298.188Q492.652 299.46 493.188 300.764Q493.725 302.067 494.188 303.399Q494.651 304.731 495.039 306.086Q495.428 307.442 495.74 308.817Q496.052 310.192 496.286 311.582Q496.521 312.972 496.678 314.373Q496.835 315.774 496.914 317.182Q496.992 318.59 496.993 320Q496.992 321.41 496.914 322.817Q496.835 324.225 496.678 325.626Q496.521 327.027 496.286 328.418Q496.052 329.808 495.74 331.183Q495.428 332.558 495.039 333.913Q494.651 335.269 494.188 336.6Q493.725 337.932 493.188 339.236Q492.652 340.54 492.043 341.812Q491.435 343.083 490.756 344.319Q490.078 345.555 489.331 346.751Q488.585 347.948 487.773 349.1Q486.961 350.253 486.086 351.359Q485.211 352.464 484.276 353.52Q483.341 354.575 482.349 355.576Q481.356 356.578 480.309 357.522Q479.262 358.467 478.165 359.351L450.393 381.73Q447.82 383.803 445.39 386.041Q442.96 388.279 440.683 390.673Q438.406 393.067 436.292 395.605Q434.178 398.144 432.236 400.817Q430.294 403.49 428.532 406.285Q426.771 409.08 425.198 411.986Q423.625 414.891 422.248 417.894Q420.87 420.897 419.693 423.984L406.992 457.312Q406.49 458.63 405.915 459.917Q405.34 461.204 404.695 462.458Q404.049 463.711 403.335 464.927Q402.62 466.142 401.839 467.316Q401.058 468.49 400.212 469.618Q399.367 470.746 398.46 471.826Q397.553 472.905 396.587 473.932Q395.621 474.96 394.6 475.931Q393.578 476.903 392.504 477.816Q391.43 478.73 390.307 479.582Q389.183 480.434 388.014 481.222Q386.845 482.01 385.634 482.731Q384.422 483.453 383.173 484.106Q381.923 484.759 380.639 485.341Q379.355 485.924 378.04 486.433Q376.726 486.943 375.385 487.379Q374.044 487.814 372.681 488.175Q371.318 488.535 369.937 488.819Q368.556 489.102 367.161 489.309Q365.766 489.515 364.362 489.643Q362.958 489.771 361.549 489.821Q360.14 489.871 358.73 489.842Q357.32 489.813 355.915 489.705Q354.509 489.598 353.111 489.412Q351.714 489.226 350.328 488.963Q348.943 488.7 347.575 488.359Q346.207 488.019 344.86 487.603Q343.512 487.187 342.191 486.697Q340.869 486.207 339.576 485.643Q338.284 485.08 337.025 484.445Q335.765 483.811 334.544 483.107Q333.322 482.403 332.141 481.633L302.276 462.136Q299.51 460.329 296.63 458.71Q293.75 457.09 290.77 455.664Q287.79 454.239 284.722 453.012Q281.654 451.786 278.512 450.765Q275.37 449.744 272.167 448.933Q268.965 448.122 265.715 447.524Q262.466 446.926 259.184 446.543Q255.903 446.161 252.603 445.996L216.982 444.215Q215.573 444.145 214.171 443.996Q212.769 443.847 211.378 443.621Q209.986 443.394 208.609 443.09Q207.233 442.786 205.875 442.406Q204.517 442.025 203.183 441.57Q201.848 441.115 200.542 440.586Q199.235 440.057 197.959 439.456Q196.684 438.854 195.444 438.183Q194.204 437.512 193.004 436.773Q191.803 436.033 190.646 435.228Q189.488 434.423 188.377 433.555Q187.267 432.686 186.206 431.757Q185.146 430.828 184.138 429.842Q183.131 428.855 182.181 427.814Q181.23 426.772 180.339 425.68Q179.448 424.587 178.619 423.446Q177.79 422.306 177.027 421.121Q176.263 419.935 175.566 418.71Q174.87 417.484 174.242 416.221Q173.615 414.958 173.059 413.663Q172.504 412.367 172.021 411.042Q171.538 409.717 171.13 408.368Q170.722 407.018 170.39 405.648Q170.058 404.278 169.803 402.891Q169.547 401.504 169.37 400.106Q169.192 398.707 169.093 397.301Q168.994 395.894 168.973 394.484Q168.952 393.075 169.01 391.666Q169.068 390.257 169.204 388.854Q169.341 387.45 169.555 386.057Q169.769 384.663 170.061 383.284Q170.353 381.905 170.721 380.544L180.035 346.115Q180.898 342.926 181.548 339.687Q182.199 336.448 182.634 333.173Q183.069 329.897 183.287 326.601Q183.505 323.304 183.505 320Q183.505 316.697 183.287 313.4Q183.069 310.103 182.634 306.828Q182.198 303.553 181.548 300.314Q180.898 297.075 180.035 293.886L170.721 259.457Q170.352 258.096 170.061 256.717Q169.769 255.338 169.554 253.944Q169.34 252.551 169.204 251.147Q169.067 249.744 169.009 248.335Q168.952 246.926 168.972 245.517Q168.993 244.107 169.092 242.7Q169.192 241.294 169.369 239.895Q169.547 238.497 169.802 237.11Q170.057 235.723 170.389 234.353Q170.722 232.983 171.13 231.633Q171.538 230.284 172.02 228.959Q172.503 227.634 173.059 226.338Q173.615 225.043 174.242 223.78Q174.869 222.517 175.565 221.291Q176.262 220.065 177.026 218.88Q177.79 217.695 178.618 216.555Q179.447 215.414 180.338 214.321Q181.229 213.229 182.18 212.187Q183.13 211.146 184.138 210.159Q185.145 209.173 186.205 208.244Q187.266 207.315 188.377 206.446Q189.487 205.578 190.645 204.773Q191.802 203.968 193.003 203.228Q194.203 202.489 195.443 201.818Q196.683 201.146 197.958 200.545Q199.234 199.944 200.541 199.415Q201.848 198.886 203.182 198.431Q204.516 197.975 205.874 197.595Q207.232 197.215 208.608 196.911Q209.985 196.607 211.377 196.38Q212.768 196.153 214.17 196.005Q215.572 195.856 216.981 195.785L252.603 194.005Q255.902 193.84 259.184 193.457Q262.465 193.075 265.715 192.477Q268.964 191.878 272.166 191.067Q275.369 190.256 278.511 189.235Q281.653 188.214 284.721 186.988Q287.789 185.762 290.769 184.336Q293.749 182.91 296.629 181.29Q299.508 179.671 302.275 177.865L332.141 158.367Q333.322 157.596 334.543 156.893Q335.765 156.189 337.024 155.554Q338.283 154.92 339.576 154.357Q340.868 153.793 342.19 153.303Q343.512 152.812 344.859 152.397Q346.206 151.981 347.575 151.64Q348.943 151.3 350.328 151.037Q351.713 150.774 353.111 150.588Q354.509 150.402 355.914 150.295Q357.32 150.187 358.73 150.158Q360.139 150.129 361.549 150.179Q362.958 150.229 364.362 150.357Q365.766 150.485 367.16 150.691Q368.555 150.897 369.936 151.181Q371.317 151.465 372.681 151.825Q374.044 152.185 375.385 152.621Q376.725 153.057 378.04 153.566Q379.355 154.076 380.639 154.659Q381.923 155.241 383.172 155.894Q384.422 156.547 385.633 157.268Q386.845 157.99 388.014 158.778Q389.183 159.566 390.306 160.418Q391.43 161.27 392.504 162.183Q393.578 163.097 394.599 164.068Q395.621 165.04 396.587 166.067Q397.553 167.095 398.46 168.174Q399.367 169.253 400.212 170.382Q401.057 171.51 401.839 172.684Q402.62 173.858 403.334 175.073Q404.049 176.289 404.695 177.542Q405.34 178.795 405.915 180.083Q406.49 181.37 406.992 182.688Z" id="Star" fill="none" fill-rule="evenodd" stroke="#FFFFFF" stroke-width="15" />
    <path d="M472.573 261.664L462.659 295.925Q461.741 299.098 461.034 302.325Q460.327 305.553 459.835 308.82Q459.343 312.087 459.067 315.379Q458.792 318.671 458.734 321.975Q458.676 325.278 458.837 328.578Q458.997 331.878 459.375 335.16Q459.753 338.442 460.347 341.692Q460.941 344.942 461.748 348.146L470.46 382.732Q470.804 384.099 471.072 385.483Q471.339 386.867 471.529 388.264Q471.719 389.661 471.831 391.067Q471.943 392.472 471.977 393.882Q472.01 395.292 471.964 396.701Q471.919 398.11 471.795 399.514Q471.671 400.919 471.47 402.314Q471.268 403.71 470.988 405.092Q470.709 406.474 470.353 407.838Q469.997 409.202 469.565 410.544Q469.134 411.887 468.628 413.203Q468.122 414.519 467.544 415.805Q466.965 417.091 466.316 418.342Q465.667 419.594 464.949 420.807Q464.232 422.021 463.447 423.192Q462.663 424.364 461.814 425.49Q460.966 426.616 460.056 427.693Q459.146 428.77 458.177 429.794Q457.209 430.819 456.184 431.788Q455.16 432.757 454.083 433.667Q453.007 434.578 451.881 435.426Q450.755 436.275 449.584 437.06Q448.413 437.845 447.199 438.563Q445.986 439.282 444.735 439.931Q443.483 440.581 442.198 441.159Q440.912 441.738 439.596 442.244Q438.28 442.75 436.938 443.182Q435.596 443.614 434.232 443.971Q432.868 444.327 431.486 444.607Q430.104 444.887 428.709 445.09Q427.313 445.292 425.909 445.416Q424.505 445.541 423.095 445.586L387.448 446.745Q384.146 446.853 380.858 447.178Q377.57 447.503 374.311 448.044Q371.052 448.585 367.836 449.341Q364.619 450.096 361.46 451.062Q358.3 452.028 355.212 453.2Q352.123 454.373 349.118 455.746Q346.113 457.12 343.206 458.689Q340.299 460.258 337.501 462.016L307.3 480.989Q306.106 481.739 304.872 482.421Q303.639 483.103 302.369 483.716Q301.099 484.328 299.797 484.869Q298.494 485.41 297.164 485.877Q295.834 486.344 294.48 486.737Q293.125 487.129 291.751 487.445Q290.377 487.761 288.988 488Q287.598 488.24 286.198 488.401Q284.797 488.562 283.39 488.645Q281.982 488.728 280.572 488.733Q279.162 488.737 277.754 488.663Q276.346 488.588 274.945 488.436Q273.543 488.283 272.152 488.053Q270.761 487.822 269.385 487.514Q268.009 487.206 266.653 486.823Q265.296 486.439 263.963 485.98Q262.63 485.52 261.324 484.988Q260.019 484.455 258.745 483.851Q257.471 483.246 256.233 482.571Q254.995 481.897 253.797 481.154Q252.598 480.411 251.443 479.603Q250.288 478.795 249.18 477.923Q248.071 477.052 247.013 476.12Q245.955 475.188 244.951 474.199Q243.946 473.209 242.999 472.165Q242.051 471.121 241.163 470.026Q240.275 468.931 239.449 467.788Q238.624 466.645 237.863 465.458Q237.102 464.271 236.409 463.043Q235.716 461.815 235.092 460.551Q234.469 459.286 233.916 457.989Q233.364 456.692 232.885 455.366L220.767 421.821Q219.645 418.714 218.32 415.688Q216.995 412.661 215.473 409.729Q213.951 406.796 212.238 403.971Q210.526 401.145 208.631 398.439Q206.736 395.733 204.667 393.157Q202.597 390.582 200.362 388.149Q198.127 385.716 195.737 383.436Q193.346 381.155 190.81 379.038L163.433 356.178Q162.35 355.274 161.32 354.312Q160.29 353.349 159.315 352.331Q158.34 351.312 157.424 350.241Q156.507 349.169 155.652 348.049Q154.796 346.928 154.005 345.761Q153.213 344.595 152.488 343.386Q151.762 342.176 151.105 340.929Q150.449 339.681 149.862 338.399Q149.276 337.117 148.762 335.804Q148.248 334.491 147.809 333.151Q147.369 331.812 147.004 330.45Q146.64 329.088 146.352 327.707Q146.064 326.327 145.853 324.933Q145.643 323.539 145.51 322.135Q145.378 320.732 145.324 319.323Q145.27 317.914 145.294 316.504Q145.319 315.094 145.422 313.688Q145.525 312.282 145.707 310.884Q145.888 309.486 146.147 308.1Q146.406 306.714 146.742 305.345Q147.078 303.975 147.49 302.627Q147.902 301.278 148.388 299.955Q148.874 298.631 149.434 297.337Q149.993 296.043 150.623 294.782Q151.254 293.521 151.954 292.297Q152.654 291.073 153.421 289.89Q154.188 288.707 155.02 287.569Q155.852 286.43 156.746 285.34Q157.64 284.25 158.593 283.211Q159.547 282.173 160.557 281.189Q161.567 280.205 162.63 279.279Q163.693 278.353 164.806 277.487L192.964 255.597Q195.572 253.569 198.041 251.373Q200.51 249.178 202.829 246.824Q205.147 244.471 207.305 241.969Q209.463 239.468 211.452 236.829Q213.44 234.19 215.25 231.426Q217.059 228.662 218.683 225.785Q220.306 222.907 221.736 219.929Q223.166 216.951 224.396 213.885L237.677 180.783Q238.202 179.475 238.799 178.198Q239.396 176.92 240.064 175.678Q240.731 174.436 241.467 173.234Q242.203 172.031 243.004 170.871Q243.806 169.711 244.671 168.598Q245.536 167.484 246.461 166.421Q247.387 165.357 248.371 164.347Q249.354 163.337 250.393 162.383Q251.431 161.429 252.521 160.535Q253.611 159.64 254.749 158.808Q255.887 157.976 257.07 157.208Q258.252 156.441 259.476 155.74Q260.7 155.04 261.96 154.409Q263.221 153.778 264.515 153.218Q265.809 152.658 267.133 152.172Q268.456 151.685 269.804 151.273Q271.152 150.86 272.522 150.524Q273.891 150.188 275.277 149.928Q276.663 149.669 278.061 149.487Q279.459 149.305 280.865 149.201Q282.271 149.097 283.681 149.072Q285.09 149.047 286.499 149.101Q287.908 149.154 289.312 149.286Q290.716 149.418 292.11 149.629Q293.504 149.839 294.884 150.126Q296.265 150.414 297.627 150.778Q298.989 151.142 300.329 151.581Q301.669 152.02 302.982 152.534Q304.295 153.047 305.577 153.633Q306.86 154.219 308.108 154.875Q309.355 155.531 310.565 156.256Q311.774 156.981 312.941 157.773L342.462 177.788Q345.196 179.642 348.047 181.312Q350.898 182.981 353.853 184.459Q356.808 185.937 359.854 187.216Q362.9 188.495 366.023 189.571Q369.147 190.647 372.335 191.514Q375.523 192.381 378.761 193.036Q382 193.69 385.274 194.13Q388.548 194.569 391.845 194.792L427.431 197.194Q428.838 197.289 430.237 197.462Q431.636 197.636 433.023 197.887Q434.411 198.138 435.782 198.466Q437.153 198.794 438.504 199.197Q439.855 199.601 441.181 200.08Q442.508 200.559 443.805 201.11Q445.103 201.662 446.367 202.285Q447.632 202.909 448.86 203.601Q450.088 204.294 451.275 205.054Q452.463 205.815 453.606 206.64Q454.749 207.465 455.845 208.353Q456.94 209.24 457.984 210.188Q459.028 211.135 460.018 212.139Q461.008 213.143 461.94 214.201Q462.872 215.259 463.744 216.367Q464.616 217.475 465.425 218.63Q466.234 219.785 466.977 220.983Q467.72 222.181 468.395 223.419Q469.07 224.657 469.675 225.93Q470.28 227.204 470.813 228.509Q471.346 229.814 471.806 231.147Q472.265 232.48 472.649 233.837Q473.034 235.193 473.342 236.569Q473.65 237.945 473.881 239.336Q474.112 240.727 474.266 242.128Q474.419 243.53 474.493 244.938Q474.568 246.346 474.564 247.756Q474.56 249.166 474.478 250.573Q474.395 251.981 474.235 253.381Q474.074 254.782 473.835 256.172Q473.596 257.561 473.281 258.935Q472.965 260.31 472.573 261.664Z" id="Star-2" fill="none" fill-rule="evenodd" stroke="#FFFFFF" stroke-width="15" />
  </g>
</svg>